<svg width="40" height="40" viewBox="0 0 40 40" fill="none" xmlns="http://www.w3.org/2000/svg">
<path d="M33.3334 28.3336V19.087C33.3334 18.1965 33.3326 17.751 33.2244 17.3366C33.1284 16.9693 32.9709 16.6218 32.7577 16.3077C32.5171 15.9534 32.1827 15.6595 31.5125 15.073L23.5125 8.07304C22.2681 6.98423 21.6459 6.44011 20.9457 6.23304C20.3287 6.05058 19.6711 6.05058 19.0541 6.23304C18.3544 6.43995 17.7332 6.98356 16.4907 8.07073L8.48804 15.073C7.81782 15.6595 7.48348 15.9534 7.24292 16.3077C7.02973 16.6218 6.871 16.9693 6.77503 17.3366C6.66675 17.751 6.66675 18.1965 6.66675 19.087V28.3336C6.66675 29.8867 6.66675 30.663 6.92048 31.2756C7.2588 32.0923 7.90728 32.7421 8.72404 33.0804C9.33661 33.3341 10.1132 33.3341 11.6663 33.3341C13.2195 33.3341 13.9969 33.3341 14.6095 33.0804C15.4262 32.7421 16.0745 32.0925 16.4128 31.2757C16.6666 30.6632 16.6667 29.8866 16.6667 28.3335V26.6668C16.6667 24.8258 18.1591 23.3335 20.0001 23.3335C21.841 23.3335 23.3334 24.8258 23.3334 26.6668V28.3335C23.3334 29.8866 23.3334 30.6632 23.5871 31.2757C23.9255 32.0925 24.5739 32.7421 25.3907 33.0804C26.0033 33.3341 26.7798 33.3341 28.333 33.3341C29.8861 33.3341 30.6636 33.3341 31.2761 33.0804C32.0929 32.7421 32.7412 32.0923 33.0795 31.2756C33.3332 30.663 33.3334 29.8867 33.3334 28.3336Z" stroke="#1D1B20" stroke-width="2" stroke-linecap="round" stroke-linejoin="round"/>
</svg>
